<svg id="visual" viewBox="0 0 675 900" width="675" height="900" xmlns="http://www.w3.org/2000/svg" xmlns:xlink="http://www.w3.org/1999/xlink" version="1.1"><rect x="0" y="0" width="675" height="900" fill="#001220"></rect><defs><linearGradient id="grad1_0" x1="0%" y1="100%" x2="100%" y2="0%"><stop offset="30%" stop-color="#fbae3c" stop-opacity="1"></stop><stop offset="70%" stop-color="#fbae3c" stop-opacity="1"></stop></linearGradient></defs><defs><linearGradient id="grad1_1" x1="0%" y1="100%" x2="100%" y2="0%"><stop offset="30%" stop-color="#fbae3c" stop-opacity="1"></stop><stop offset="70%" stop-color="#96446e" stop-opacity="1"></stop></linearGradient></defs><defs><linearGradient id="grad1_2" x1="0%" y1="100%" x2="100%" y2="0%"><stop offset="30%" stop-color="#001220" stop-opacity="1"></stop><stop offset="70%" stop-color="#96446e" stop-opacity="1"></stop></linearGradient></defs><defs><linearGradient id="grad2_0" x1="0%" y1="100%" x2="100%" y2="0%"><stop offset="30%" stop-color="#fbae3c" stop-opacity="1"></stop><stop offset="70%" stop-color="#fbae3c" stop-opacity="1"></stop></linearGradient></defs><defs><linearGradient id="grad2_1" x1="0%" y1="100%" x2="100%" y2="0%"><stop offset="30%" stop-color="#96446e" stop-opacity="1"></stop><stop offset="70%" stop-color="#fbae3c" stop-opacity="1"></stop></linearGradient></defs><defs><linearGradient id="grad2_2" x1="0%" y1="100%" x2="100%" y2="0%"><stop offset="30%" stop-color="#96446e" stop-opacity="1"></stop><stop offset="70%" stop-color="#001220" stop-opacity="1"></stop></linearGradient></defs><g transform="translate(675, 900)"><path d="M-253.1 0C-243.8 -24 -234.4 -48 -228.3 -74.2C-222.1 -100.3 -219.2 -128.5 -204.8 -148.8C-190.4 -169.1 -164.5 -181.5 -141.7 -195C-118.8 -208.5 -98.8 -223.1 -75.7 -233C-52.6 -242.9 -26.3 -248 0 -253.1L0 0Z" fill="#3d3056"></path><path d="M-168.7 0C-162.5 -16 -156.3 -32 -152.2 -49.4C-148.1 -66.9 -146.1 -85.7 -136.5 -99.2C-126.9 -112.7 -109.7 -121 -94.4 -130C-79.2 -139 -65.9 -148.8 -50.5 -155.3C-35.1 -161.9 -17.5 -165.3 0 -168.7L0 0Z" fill="#e1685e"></path><path d="M-84.4 0C-81.3 -8 -78.1 -16 -76.1 -24.7C-74 -33.4 -73.1 -42.8 -68.3 -49.6C-63.5 -56.4 -54.8 -60.5 -47.2 -65C-39.6 -69.5 -32.9 -74.4 -25.2 -77.7C-17.5 -81 -8.8 -82.7 0 -84.4L0 0Z" fill="#fbae3c"></path></g><g transform="translate(0, 0)"><path d="M253.1 0C241.6 23.3 230.1 46.7 224.4 72.9C218.8 99.2 219.2 128.4 204.8 148.8C190.4 169.1 161.3 180.6 135.8 186.9C110.3 193.2 88.5 194.3 66.4 204.5C44.4 214.7 22.2 233.9 0 253.1L0 0Z" fill="#3d3056"></path><path d="M168.8 0C161.1 15.6 153.4 31.1 149.6 48.6C145.9 66.1 146.1 85.6 136.5 99.2C126.9 112.8 107.5 120.4 90.5 124.6C73.5 128.8 59 129.5 44.3 136.3C29.6 143.1 14.8 155.9 0 168.8L0 0Z" fill="#e1685e"></path><path d="M84.4 0C80.5 7.8 76.7 15.6 74.8 24.3C72.9 33.1 73.1 42.8 68.3 49.6C63.5 56.4 53.8 60.2 45.3 62.3C36.8 64.4 29.5 64.8 22.1 68.2C14.8 71.6 7.4 78 0 84.4L0 0Z" fill="#fbae3c"></path></g></svg>