<svg id="visual" viewBox="0 0 900 450" width="900" height="450" xmlns="http://www.w3.org/2000/svg" xmlns:xlink="http://www.w3.org/1999/xlink" version="1.1"><rect x="0" y="0" width="900" height="450" fill="#001220"></rect><defs><linearGradient id="grad1_0" x1="50%" y1="0%" x2="100%" y2="100%"><stop offset="10%" stop-color="#fbae3c" stop-opacity="1"></stop><stop offset="90%" stop-color="#fbae3c" stop-opacity="1"></stop></linearGradient></defs><defs><linearGradient id="grad1_1" x1="50%" y1="0%" x2="100%" y2="100%"><stop offset="10%" stop-color="#fbae3c" stop-opacity="1"></stop><stop offset="90%" stop-color="#96446e" stop-opacity="1"></stop></linearGradient></defs><defs><linearGradient id="grad1_2" x1="50%" y1="0%" x2="100%" y2="100%"><stop offset="10%" stop-color="#001220" stop-opacity="1"></stop><stop offset="90%" stop-color="#96446e" stop-opacity="1"></stop></linearGradient></defs><defs><linearGradient id="grad2_0" x1="0%" y1="0%" x2="50%" y2="100%"><stop offset="10%" stop-color="#fbae3c" stop-opacity="1"></stop><stop offset="90%" stop-color="#fbae3c" stop-opacity="1"></stop></linearGradient></defs><defs><linearGradient id="grad2_1" x1="0%" y1="0%" x2="50%" y2="100%"><stop offset="10%" stop-color="#96446e" stop-opacity="1"></stop><stop offset="90%" stop-color="#fbae3c" stop-opacity="1"></stop></linearGradient></defs><defs><linearGradient id="grad2_2" x1="0%" y1="0%" x2="50%" y2="100%"><stop offset="10%" stop-color="#96446e" stop-opacity="1"></stop><stop offset="90%" stop-color="#001220" stop-opacity="1"></stop></linearGradient></defs><g transform="translate(900, 0)"><path d="M0 202.5C-17.5 191 -35 179.5 -57.2 175.9C-79.3 172.3 -106 176.6 -119 163.8C-132 151 -131.3 121.1 -140 101.7C-148.7 82.3 -166.8 73.3 -178.8 58.1C-190.8 42.9 -196.6 21.4 -202.5 0L0 0Z" fill="#3d3056"></path><path d="M0 135C-11.7 127.3 -23.4 119.7 -38.1 117.3C-52.9 114.9 -70.7 117.8 -79.4 109.2C-88 100.7 -87.5 80.7 -93.3 67.8C-99.1 54.8 -111.2 48.9 -119.2 38.7C-127.2 28.6 -131.1 14.3 -135 0L0 0Z" fill="#e1685e"></path><path d="M0 67.5C-5.8 63.7 -11.7 59.8 -19.1 58.6C-26.4 57.4 -35.3 58.9 -39.7 54.6C-44 50.3 -43.8 40.4 -46.7 33.9C-49.6 27.4 -55.6 24.4 -59.6 19.4C-63.6 14.3 -65.5 7.1 -67.5 0L0 0Z" fill="#fbae3c"></path></g><g transform="translate(0, 450)"><path d="M0 -202.5C16.5 -181.1 33 -159.7 48.5 -149.3C64.1 -139 78.7 -139.7 100.5 -138.3C122.3 -137 151.3 -133.6 163.8 -119C176.3 -104.5 172.3 -78.9 175.9 -57.2C179.6 -35.5 191.1 -17.7 202.5 0L0 0Z" fill="#3d3056"></path><path d="M0 -135C11 -120.7 22 -106.4 32.3 -99.5C42.7 -92.6 52.5 -93.1 67 -92.2C81.6 -91.3 100.9 -89 109.2 -79.4C117.5 -69.7 114.8 -52.6 117.3 -38.1C119.8 -23.7 127.4 -11.8 135 0L0 0Z" fill="#e1685e"></path><path d="M0 -67.5C5.5 -60.4 11 -53.2 16.2 -49.8C21.4 -46.3 26.2 -46.6 33.5 -46.1C40.8 -45.7 50.4 -44.5 54.6 -39.7C58.8 -34.8 57.4 -26.3 58.6 -19.1C59.9 -11.8 63.7 -5.9 67.5 0L0 0Z" fill="#fbae3c"></path></g></svg>